<?xml version="1.0" encoding="utf-8"?>
<!-- Generator: Adobe Illustrator 22.1.0, SVG Export Plug-In . SVG Version: 6.00 Build 0)  -->
<svg version="1.2" baseProfile="tiny" id="Layer_1" xmlns="http://www.w3.org/2000/svg" xmlns:xlink="http://www.w3.org/1999/xlink"
	 x="0px" y="0px" viewBox="0 0 200 200" xml:space="preserve">
<g>
	<g>
		<g>
			<path fill="#CD9876" d="M57,83.8c-2.7,4.7-4.2,10.1-4.2,15.6c0,4.5,0.9,8.8,2.7,12.8l0.4,0.8l0.9-0.1c8.6-1.3,16.6-5.6,22.5-11.9
				c5.8-6.2,9.4-14.1,10.4-22.5c0.5-0.1,1-0.2,1.5-0.3c4.1,6.8,10.6,11.7,18,13.9c-6.5,1.1-12.4,4.3-17.1,9
				c-5.7,5.9-8.9,13.7-8.9,21.9c0,2.3,0.3,4.6,0.8,6.9l0.2,0.9l1,0c8.2-0.3,15.8-3.6,21.5-9.5c5.2-5.4,8.3-12.3,8.8-19.7
				c0,0,0-0.1,0-0.1c0-0.3,0-0.6,0-0.9c0-0.1,0-0.2,0-0.2c0-0.3,0-0.6,0-1c0-0.3,0-0.6,0-1c0-0.1,0-0.2,0-0.3c0-0.2,0-0.4,0-0.7
				c0-0.1,0-0.2,0-0.3c0-0.2,0-0.4-0.1-0.7c0-0.1,0-0.2,0-0.3c0-0.3-0.1-0.5-0.1-0.8c0-0.1,0-0.1,0-0.2c-0.1-0.7-0.2-1.4-0.3-2
				c1,0.1,2,0.2,3.1,0.2c12.8,0,24.2-7.6,29-19.4l0.2-0.4l-0.2-0.4c-4.9-11.8-16.3-19.4-29-19.4c-1,0-2,0.1-3,0.2
				c0.4-2,0.6-4.1,0.6-6.1c0-0.3,0-0.6,0-0.9c0-0.1,0-0.1,0-0.2c0-0.3,0-0.5,0-0.8c0,0,0-0.1,0-0.1c-0.5-7.4-3.5-14.4-8.7-19.8
				c-5.6-5.9-13.2-9.3-21.3-9.6l-0.9,0l-0.2,0.9c-0.7,2.6-1.1,5.3-1.1,8.1c0,8.2,3.1,15.9,8.8,21.8c4.1,4.3,9.3,7.2,14.9,8.7
				c-6.5,2.5-12.1,7-15.8,13.1c-0.5-0.1-1.1-0.2-1.6-0.3c-2.5-17.1-16-30.7-33.2-33.2l-0.9-0.1L55,36c-1.5,3.7-2.2,7.6-2.2,11.7
				c0,5.5,1.4,10.9,4.2,15.6c2.3,4.1,5.6,7.5,9.4,10.2l-0.1,0l0.1,0C62.5,76.3,59.3,79.8,57,83.8z M86.3,68.2c0,0-0.1,0-0.1,0
				c-0.3,0-0.5,0-0.8,0c-0.1,0-0.2,0-0.3,0c-0.3,0-0.6,0-0.9,0c-0.4,0-0.7,0-1.1,0c-0.1,0-0.2,0-0.3,0c-0.2,0-0.5,0-0.7,0
				c-0.1,0-0.3,0-0.4,0c-0.2,0-0.4,0-0.6,0.1c-0.1,0-0.3,0-0.4,0.1c-0.2,0-0.4,0-0.6,0.1c-0.2,0-0.3,0-0.5,0.1
				c-0.2,0-0.4,0.1-0.6,0.1c-0.2,0-0.3,0.1-0.5,0.1c-0.2,0-0.4,0.1-0.6,0.1c-0.2,0-0.3,0.1-0.5,0.1c-0.2,0-0.4,0.1-0.5,0.1
				c-0.2,0-0.3,0.1-0.5,0.1c-0.2,0-0.4,0.1-0.5,0.1c-0.2,0-0.3,0.1-0.5,0.1c-0.2,0.1-0.4,0.1-0.5,0.2c-0.2,0-0.3,0.1-0.5,0.1
				c-0.2,0.1-0.3,0.1-0.5,0.2c-0.2,0.1-0.3,0.1-0.5,0.2c-0.2,0.1-0.3,0.1-0.5,0.2c-0.2,0.1-0.3,0.1-0.5,0.2
				c-0.2,0.1-0.3,0.1-0.5,0.2c-0.2,0.1-0.3,0.1-0.5,0.2c-0.2,0.1-0.3,0.1-0.5,0.2c-0.1,0.1-0.3,0.1-0.4,0.2
				c-0.2,0.1-0.3,0.2-0.5,0.2c-0.1,0.1-0.3,0.1-0.4,0.2c-0.2,0.1-0.3,0.2-0.5,0.3c-0.1,0.1-0.3,0.2-0.4,0.2c-0.1,0-0.1,0.1-0.2,0.1
				c-8.4-5.4-13.5-14.5-13.5-24.5c0-3.4,0.6-6.8,1.7-9.9c15.6,2.6,27.7,14.9,30.3,30.5C86.9,68.2,86.6,68.2,86.3,68.2z M84.2,76.8
				c-4.6,0-9.2-1.1-13.3-3.2c0.3-0.1,0.5-0.3,0.8-0.4c3.9-1.8,8.1-2.8,12.5-2.8c0,0,0,0,0.1,0c0.3,0,0.6,0,0.9,0c0.1,0,0.2,0,0.3,0
				c0.2,0,0.4,0,0.7,0c0.1,0,0.2,0,0.4,0c0.2,0,0.4,0,0.6,0.1c0.1,0,0.3,0,0.4,0c0.2,0,0.4,0,0.6,0.1c1.2,0.2,2.4,0.4,3.6,0.7
				c0.1,0,0.2,0.1,0.4,0.1c0.2,0,0.3,0.1,0.5,0.1c0.1,0,0.2,0.1,0.3,0.1c0.2,0,0.3,0.1,0.5,0.1c0.1,0,0.2,0.1,0.3,0.1
				c0.2,0.1,0.3,0.1,0.5,0.2c0.1,0,0.2,0.1,0.3,0.1c0.2,0.1,0.3,0.1,0.5,0.2c0.1,0,0.2,0.1,0.3,0.1c0.2,0.1,0.3,0.1,0.5,0.2
				c0.1,0,0.2,0.1,0.3,0.1c0.2,0.1,0.4,0.2,0.5,0.3c0.1,0,0.1,0.1,0.2,0.1c0.3,0.1,0.5,0.2,0.8,0.4c-0.2,0.1-0.5,0.3-0.7,0.4
				c-0.1,0-0.1,0.1-0.2,0.1c-0.2,0.1-0.4,0.2-0.5,0.2c-0.1,0-0.2,0.1-0.3,0.1c-0.2,0.1-0.3,0.1-0.5,0.2c-0.1,0-0.2,0.1-0.3,0.1
				c-0.2,0.1-0.3,0.1-0.5,0.2C94.3,75,94.2,75,94,75c-0.1,0.1-0.3,0.1-0.4,0.2c-0.1,0-0.2,0.1-0.4,0.1c-0.1,0-0.3,0.1-0.4,0.1
				c-0.1,0-0.2,0.1-0.4,0.1c-0.1,0-0.3,0.1-0.4,0.1c-0.1,0-0.2,0.1-0.4,0.1c-1,0.3-2.1,0.5-3.1,0.6l-0.1,0c-0.3,0-0.7,0.1-1,0.1
				c-0.1,0-0.1,0-0.2,0c-0.3,0-0.5,0.1-0.8,0.1c-0.1,0-0.2,0-0.2,0c-0.3,0-0.5,0-0.8,0c-0.1,0-0.2,0-0.2,0
				C84.8,76.8,84.5,76.8,84.2,76.8z M111.9,56.7c-2,6.4-6.2,11.9-12.1,15.6c-0.1,0-0.2-0.1-0.3-0.1c-0.1-0.1-0.2-0.1-0.3-0.2
				c-0.2-0.1-0.4-0.2-0.6-0.3c-0.1-0.1-0.2-0.1-0.3-0.2c-0.2-0.1-0.4-0.2-0.6-0.3c-0.1-0.1-0.2-0.1-0.4-0.2
				c-0.2-0.1-0.4-0.2-0.6-0.3c-0.1-0.1-0.2-0.1-0.4-0.2c-0.2-0.1-0.4-0.2-0.6-0.2c-0.1,0-0.2-0.1-0.4-0.1c-0.2-0.1-0.4-0.1-0.6-0.2
				c-0.1,0-0.2-0.1-0.4-0.1c-0.2-0.1-0.4-0.1-0.6-0.2c-0.1,0-0.2-0.1-0.3-0.1c0,0-0.1,0-0.1,0C97.7,62.9,104.3,58.3,111.9,56.7z
				 M109.8,33.9L109.8,33.9c2,3.7,3.1,7.8,3.4,12c0,0,0,0,0,0.1c0,0.3,0,0.5,0,0.8c0,0.1,0,0.1,0,0.2c0,0.3,0,0.6,0,0.8
				c0,0.3,0,0.6,0,0.9c0,0.1,0,0.3,0,0.4c0,0.1,0,0.3,0,0.4c0,0.2,0,0.4,0,0.6c0,0.1,0,0.2,0,0.2c0,0.2,0,0.5-0.1,0.7c0,0,0,0,0,0
				c-0.1,1.1-0.3,2.1-0.5,3.1c-0.1,0-0.3,0.1-0.4,0.1c-15-1.3-26.6-13.7-26.6-29c0-2.2,0.3-4.4,0.7-6.6
				C96.5,19.4,105.2,25.4,109.8,33.9z M118,91.1c-1.2,0-2.4-0.1-3.6-0.2c-0.7-2.5-1.7-4.8-3-7.1c-2.3-4.1-5.6-7.5-9.4-10.2l0.1,0
				l-0.1,0c3.8-2.7,7.1-6.1,9.4-10.2c1.2-2.1,2.2-4.3,2.9-6.7l0,0l0.1-0.5c1.2-0.2,2.4-0.2,3.6-0.2c11.7,0,22.1,6.9,26.7,17.6
				C140.1,84.2,129.7,91.1,118,91.1z M112.7,94.1c0.2,1.1,0.3,2.2,0.4,3.3c0,0,0,0,0,0.1c0,0.1,0,0.3,0,0.4c0,0.2,0,0.3,0,0.5
				c0,0.1,0,0.2,0,0.3c0,0.3,0,0.6,0,0.8c0,0.3,0,0.6,0,0.9c0,0.1,0,0.1,0,0.2c-0.2,4.9-1.6,9.6-4.1,13.8l0,0
				c-4.7,8-13.2,13.5-23.1,14.1c-0.3-1.8-0.5-3.6-0.5-5.4C85.5,107.6,97.4,95,112.7,94.1z M93.6,77.6c0.1,0,0.2-0.1,0.4-0.1
				c0.2-0.1,0.4-0.1,0.6-0.2c0.1,0,0.3-0.1,0.4-0.1c0.2-0.1,0.4-0.1,0.6-0.2c0.1,0,0.3-0.1,0.4-0.2c0.2-0.1,0.4-0.2,0.6-0.2
				c0.1-0.1,0.3-0.1,0.4-0.2c0.2-0.1,0.4-0.2,0.6-0.3c0.1-0.1,0.2-0.1,0.4-0.2c0.2-0.1,0.4-0.2,0.6-0.3c0.1-0.1,0.2-0.1,0.3-0.2
				c0.2-0.1,0.4-0.2,0.6-0.3c0.1-0.1,0.2-0.1,0.3-0.2c0.1,0,0.2-0.1,0.3-0.1c5.8,3.7,10,9.2,12.1,15.5
				C104.3,88.8,97.7,84.2,93.6,77.6C93.5,77.7,93.5,77.7,93.6,77.6z M55.1,99.5c0-10,5-19.2,13.5-24.5c0,0,0.1,0.1,0.1,0.1
				c0.2,0.1,0.4,0.2,0.6,0.4c0.1,0.1,0.2,0.1,0.4,0.2c0.3,0.1,0.5,0.3,0.8,0.4c0.1,0,0.2,0.1,0.3,0.1c0.3,0.2,0.7,0.3,1,0.5
				c0.1,0.1,0.3,0.1,0.4,0.2c0.2,0.1,0.4,0.2,0.7,0.3c0.2,0.1,0.3,0.1,0.5,0.2c0.2,0.1,0.4,0.1,0.6,0.2c0.2,0.1,0.3,0.1,0.5,0.2
				c0.2,0.1,0.4,0.1,0.6,0.2c0.2,0.1,0.4,0.1,0.6,0.2c0.2,0.1,0.4,0.1,0.5,0.1c0.2,0.1,0.4,0.1,0.6,0.1c0.2,0,0.4,0.1,0.5,0.1
				c0.2,0,0.4,0.1,0.6,0.1c0.2,0,0.4,0.1,0.5,0.1c0.2,0,0.4,0.1,0.6,0.1c0.3,0.1,0.6,0.1,0.9,0.1c0.2,0,0.5,0.1,0.7,0.1
				c0.2,0,0.4,0,0.6,0.1c0.2,0,0.4,0,0.5,0c0.2,0,0.4,0,0.6,0c0.2,0,0.3,0,0.5,0c0.2,0,0.4,0,0.6,0c0.2,0,0.3,0,0.5,0
				c0.1,0,0.2,0,0.3,0c0.1,0,0.3,0,0.4,0c0.1,0,0.3,0,0.4,0c0.3,0,0.5,0,0.8,0c0.1,0,0.2,0,0.3,0c0.4,0,0.8-0.1,1.1-0.1c0,0,0,0,0,0
				c-2,16-14.1,28.7-30,31.6C55.8,107,55.1,103.3,55.1,99.5z"/>
			<circle fill="#CD9876" cx="136.7" cy="73.6" r="2"/>
		</g>
	</g>
	<g>
		<g>
			<path fill="#FFFFFF" d="M199.8,161.1c0.1,0.3,0.2,0.7,0.2,1.1c0,0.4-0.1,0.7-0.2,1.1c-0.1,0.3-0.3,0.6-0.6,0.9
				c-0.2,0.2-0.5,0.4-0.9,0.6s-0.7,0.2-1.1,0.2c-0.4,0-0.7-0.1-1.1-0.2c-0.3-0.1-0.6-0.3-0.9-0.6c-0.2-0.2-0.4-0.5-0.6-0.9
				c-0.1-0.3-0.2-0.7-0.2-1.1c0-0.4,0.1-0.7,0.2-1.1c0.1-0.3,0.3-0.6,0.6-0.9c0.2-0.2,0.5-0.4,0.9-0.6c0.3-0.1,0.7-0.2,1.1-0.2
				c0.4,0,0.7,0.1,1.1,0.2s0.6,0.3,0.9,0.6C199.5,160.4,199.6,160.7,199.8,161.1z M198.2,160.1c-0.3-0.1-0.6-0.2-0.9-0.2
				c-0.3,0-0.6,0.1-0.9,0.2c-0.3,0.1-0.5,0.3-0.7,0.5c-0.2,0.2-0.4,0.4-0.5,0.7c-0.1,0.3-0.2,0.6-0.2,0.9c0,0.3,0.1,0.6,0.2,0.9
				c0.1,0.3,0.3,0.5,0.5,0.7c0.2,0.2,0.4,0.4,0.7,0.5c0.3,0.1,0.6,0.2,0.9,0.2c0.3,0,0.6-0.1,0.9-0.2c0.3-0.1,0.5-0.3,0.7-0.5
				c0.2-0.2,0.4-0.4,0.5-0.7c0.1-0.3,0.2-0.6,0.2-0.9c0-0.3-0.1-0.6-0.2-0.9c-0.1-0.3-0.3-0.5-0.5-0.7
				C198.7,160.4,198.4,160.2,198.2,160.1z M197.9,162.4l0.6,1.1c0,0,0,0.1,0,0.1c0,0,0,0-0.1,0H198c0,0-0.1,0-0.1-0.1l-0.6-1.1h-0.5
				v1.1c0,0,0,0.1,0,0.1c0,0,0,0-0.1,0h-0.4c0,0-0.1,0-0.1,0c0,0,0,0,0-0.1v-2.9c0,0,0-0.1,0-0.1c0,0,0,0,0.1,0h0.9
				c0.3,0,0.4,0,0.6,0.1c0.2,0.1,0.3,0.2,0.4,0.3c0.1,0.2,0.1,0.3,0.1,0.5c0,0.2,0,0.4-0.1,0.5C198.1,162.2,198,162.3,197.9,162.4
				C197.9,162.4,197.9,162.4,197.9,162.4z M197.7,161.5c0-0.2-0.1-0.3-0.2-0.4c-0.1,0-0.2-0.1-0.4-0.1h-0.4v0.8h0.5
				c0.1,0,0.2,0,0.3-0.1C197.7,161.8,197.7,161.7,197.7,161.5z"/>
		</g>
		<g>
			<path fill="#FFFFFF" d="M7.1,158.8l0.2,2.9c1.7-2.2,4.1-3.3,7-3.3c3.1,0,5.2,1.2,6.3,3.7c1.7-2.5,4-3.7,7.2-3.7c5,0,7.5,3,7.6,9
				v15.9h-7.6v-15.4c0-1.2-0.2-2.2-0.6-2.7c-0.4-0.6-1.2-0.9-2.3-0.9c-1.5,0-2.6,0.7-3.4,2l0,0.3v16.7h-7.6v-15.4
				c0-1.3-0.2-2.2-0.6-2.8c-0.4-0.6-1.2-0.9-2.3-0.9c-1.5,0-2.6,0.7-3.3,2v17H0v-24.4H7.1z"/>
			<path fill="#FFFFFF" d="M38.8,170.8c0-2.4,0.5-4.6,1.4-6.5c0.9-1.9,2.3-3.4,4.1-4.4c1.8-1,3.9-1.5,6.3-1.5c3.7,0,6.5,1.1,8.6,3.4
				c2.1,2.3,3.2,5.3,3.2,9.2v0.3c0,3.8-1.1,6.8-3.2,9.1c-2.1,2.2-5,3.4-8.6,3.4c-3.5,0-6.3-1-8.4-3.1c-2.1-2.1-3.2-4.9-3.4-8.5
				L38.8,170.8z M46.4,171.3c0,2.3,0.4,3.9,1.1,5c0.7,1.1,1.8,1.6,3.1,1.6c2.7,0,4.1-2.1,4.2-6.3v-0.8c0-4.4-1.4-6.6-4.2-6.6
				c-2.5,0-3.9,1.9-4.1,5.7L46.4,171.3z"/>
			<path fill="#FFFFFF" d="M80.5,165.7l-2.5-0.2c-2.4,0-3.9,0.8-4.6,2.3v15.5h-7.6v-24.4h7.1l0.2,3.1c1.3-2.4,3.1-3.6,5.4-3.6
				c0.8,0,1.5,0.1,2.1,0.3L80.5,165.7z"/>
			<path fill="#FFFFFF" d="M83.2,152.5c0-1.1,0.4-2,1.2-2.7c0.8-0.7,1.8-1,3-1c1.2,0,2.3,0.3,3,1c0.8,0.7,1.2,1.6,1.2,2.7
				c0,1.1-0.4,2-1.2,2.7c-0.8,0.7-1.8,1-3,1c-1.2,0-2.3-0.3-3-1C83.6,154.5,83.2,153.6,83.2,152.5z M91.3,183.2h-7.6v-24.4h7.6
				V183.2z"/>
			<path fill="#FFFFFF" d="M103.4,161.4c1.6-2,3.7-3.1,6.2-3.1c2.7,0,4.7,0.8,6.1,2.4c1.4,1.6,2.1,4,2.1,7.1v15.4h-7.6V168
				c0-1.3-0.3-2.2-0.8-2.9c-0.5-0.6-1.4-0.9-2.7-0.9c-1.6,0-2.7,0.5-3.3,1.5v17.5h-7.6v-34.7h7.6V161.4z"/>
			<path fill="#FFFFFF" d="M135.8,183.2c-0.3-0.5-0.5-1.2-0.7-2.2c-1.4,1.8-3.4,2.6-5.9,2.6c-2.3,0-4.3-0.7-5.9-2.1
				c-1.6-1.4-2.4-3.1-2.4-5.2c0-2.6,1-4.7,2.9-6c2-1.4,4.8-2,8.5-2h2.3V167c0-2.3-1-3.4-2.9-3.4c-1.8,0-2.7,0.9-2.7,2.7h-7.6
				c0-2.4,1-4.3,3-5.7c2-1.5,4.6-2.2,7.7-2.2c3.1,0,5.6,0.8,7.4,2.3c1.8,1.5,2.7,3.6,2.8,6.3v10.8c0,2.2,0.4,4,1,5.1v0.4H135.8z
				 M131,178.3c0.9,0,1.7-0.2,2.4-0.6c0.6-0.4,1.1-0.9,1.3-1.4v-3.9h-2.2c-2.6,0-4,1.2-4,3.6c0,0.7,0.2,1.3,0.7,1.7
				C129.7,178.1,130.3,178.3,131,178.3z"/>
			<path fill="#FFFFFF" d="M153.6,158.8l0.2,2.9c1.7-2.2,4-3.3,7-3.3c2.5,0,4.4,0.8,5.7,2.3c1.3,1.5,1.9,3.8,2,6.9v15.7h-7.6v-15.4
				c0-1.2-0.2-2.1-0.7-2.7c-0.5-0.6-1.4-0.9-2.7-0.9c-1.5,0-2.6,0.6-3.3,1.8v17.2h-7.6v-24.4H153.6z"/>
			<path fill="#FFFFFF" d="M186.4,183.2c-0.3-0.5-0.5-1.2-0.7-2.2c-1.4,1.8-3.4,2.6-5.9,2.6c-2.3,0-4.3-0.7-5.9-2.1
				c-1.6-1.4-2.4-3.1-2.4-5.2c0-2.6,1-4.7,2.9-6c2-1.4,4.8-2,8.5-2h2.3V167c0-2.3-1-3.4-2.9-3.4c-1.8,0-2.7,0.9-2.7,2.7h-7.6
				c0-2.4,1-4.3,3-5.7c2-1.5,4.6-2.2,7.7-2.2s5.6,0.8,7.4,2.3c1.8,1.5,2.7,3.6,2.8,6.3v10.8c0,2.2,0.4,4,1,5.1v0.4H186.4z
				 M181.7,178.3c0.9,0,1.7-0.2,2.4-0.6c0.6-0.4,1.1-0.9,1.3-1.4v-3.9h-2.2c-2.6,0-4,1.2-4,3.6c0,0.7,0.2,1.3,0.7,1.7
				C180.3,178.1,180.9,178.3,181.7,178.3z"/>
		</g>
	</g>
</g>
</svg>
